<svg xmlns="http://www.w3.org/2000/svg" viewBox="0 0 222 222">
    <g id="Layer_x0020_1"><path class="fil0" d="M206 126c1-5 1-10 1-15 0-55-44-99-99-99-5 0-10 0-15 1C83 5 70-1 56-1 25-1 0 24 0 55c0 13 4 24 11 34-1 7-2 14-2 21 0 55 44 99 99 99 7 0 14-1 20-2 10 9 23 14 37 14 31 0 56-25 56-56 0-15-6-29-16-40zm-52 28c-4 6-10 10-17 13-8 3-16 5-27 5-12 0-23-2-31-6-6-3-10-7-14-12s-5-10-5-15c0-3 1-5 3-7s5-3 8-3 5 1 7 2c2 2 3 4 5 7 2 4 3 7 5 9s4 5 8 6c3 2 8 2 13 2 8 0 14-2 18-5 5-3 7-7 7-12 0-4-1-7-4-9s-6-4-10-5-9-3-16-4c-9-2-17-4-23-7s-11-6-14-11c-4-4-5-10-5-17 0-6 2-12 6-17s9-9 16-11c7-3 15-4 25-4 8 0 14 1 20 3s10 4 14 7 6 6 8 9 3 6 3 9-1 5-3 8c-2 2-5 3-8 3s-5-1-7-2-3-4-5-7c-2-4-5-8-8-10s-8-4-15-4-12 1-16 4-6 6-6 10c0 2 1 4 2 6s3 3 6 4c2 1 5 2 7 3s6 2 12 3c7 2 13 3 19 5s11 4 15 7 7 6 9 10 3 9 3 15c0 7-2 13-6 19z" id="_159112400" fill="#248cec" /></g>
</svg>