<?xml version="1.0" encoding="UTF-8"?>
<!DOCTYPE svg PUBLIC "-//W3C//DTD SVG 1.1//EN" "http://www.w3.org/Graphics/SVG/1.1/DTD/svg11.dtd">
<!-- Creator: CorelDRAW X6 -->
<svg xmlns="http://www.w3.org/2000/svg" xml:space="preserve" width="0.180551in" height="0.22222in" version="1.1" style="shape-rendering:geometricPrecision; text-rendering:geometricPrecision; image-rendering:optimizeQuality; fill-rule:evenodd; clip-rule:evenodd"
viewBox="0 0 181 222"
 xmlns:xlink="http://www.w3.org/1999/xlink">
 <defs>
  <style type="text/css">
   <![CDATA[
    .fil0 {fill:none;fill-rule:nonzero}
   ]]>
  </style>
 </defs>
 <g id="Layer_x0020_1">
  <metadata id="CorelCorpID_0Corel-Layer"/>
  <g id="_285066752">
   <path class="fil0" d="M170 194l-43 -115 0 -34c8,-3 14,-10 14,-19l0 -6c0,-11 -9,-20 -21,-20l-61 0c-11,0 -21,9 -21,20l0 6c0,9 6,16 14,19l0 34 -42 115c-3,6 -2,13 2,19 4,6 10,9 17,9l121 0c7,0 13,-3 17,-9 4,-6 5,-13 2,-19zm-113 -26l0 0c0,-4 3,-7 7,-7 4,0 7,3 7,7 0,4 -3,7 -7,7 -4,0 -7,-3 -7,-7zm45 6l0 0c7,0 12,5 12,12 0,7 -5,12 -12,12 -7,0 -12,-5 -12,-12 0,-7 5,-12 12,-12zm-10 -26l0 0c0,-5 4,-9 9,-9 5,0 9,4 9,9 0,5 -4,9 -9,9 -5,0 -9,-4 -9,-9zm-25 -66l0 0 0 -42 0 -7 -7 0c-4,0 -7,-3 -7,-7l0 -6c0,-4 3,-7 7,-7l61 0c4,0 7,3 7,7l0 6c0,4 -3,7 -7,7l-7 0 0 49 12 32c0,0 0,0 0,0 -9,9 -74,10 -74,10l-1 0 16 -43z"/>
  </g>
  <g id="_285066248">
   <path class="fil0" d="M85 108c5,0 9,-4 9,-9 0,-5 -4,-9 -9,-9 -5,0 -9,4 -9,9 0,5 4,9 9,9z"/>
  </g>
 </g>
</svg>
