<?xml version="1.0" encoding="UTF-8"?>
<!DOCTYPE svg PUBLIC "-//W3C//DTD SVG 1.1//EN" "http://www.w3.org/Graphics/SVG/1.1/DTD/svg11.dtd">
<!-- Creator: CorelDRAW X6 -->
<svg xmlns="http://www.w3.org/2000/svg" xml:space="preserve" width="0.22222in" height="0.23611in" version="1.1" style="shape-rendering:geometricPrecision; text-rendering:geometricPrecision; image-rendering:optimizeQuality; fill-rule:evenodd; clip-rule:evenodd"
viewBox="0 0 222 236"
 xmlns:xlink="http://www.w3.org/1999/xlink">
 <defs>
  <style type="text/css">
   <![CDATA[
    .fil0 {fill:none;fill-rule:nonzero}
   ]]>
  </style>
 </defs>
 <g id="Layer_x0020_1">
  <metadata id="CorelCorpID_0Corel-Layer"/>
  <g id="_155130272">
   <path class="fil0" d="M185 199c-8,-1 -18,-1 -28,-1 9,-8 17,-19 23,-31 3,3 6,5 10,6 2,0 4,1 5,1 4,0 8,-1 12,-3 5,-3 9,-8 10,-14 1,-6 0,-12 -3,-17 -5,-9 -15,-12 -24,-10 0,-4 1,-8 1,-12 0,-4 -3,-8 -8,-8l-144 0c-4,0 -8,4 -8,8 0,34 14,63 34,81 -10,0 -20,1 -28,1 -29,2 -37,4 -37,13 0,9 8,11 37,13 20,1 46,2 74,2 28,0 54,-1 74,-2 29,-2 37,-4 37,-13 0,-9 -8,-11 -37,-13zm4 -60l0 0c0,0 0,0 0,0 6,-4 14,-2 18,4 2,3 2,7 2,10 -1,3 -3,6 -6,8 -3,2 -6,2 -10,2 -3,-1 -6,-3 -8,-6 0,0 0,0 -1,-1 2,-6 4,-11 5,-17zm-141 -15l0 0 128 0c-3,42 -30,75 -64,75 -33,0 -61,-33 -64,-75z"/>
  </g>
  <g id="_155131472">
   <path class="fil0" d="M97 92l1 0c2,0 4,-1 5,-2 1,-2 2,-4 1,-6 0,0 -6,-18 2,-32 8,-14 11,-25 8,-33 -3,-7 -9,-9 -9,-9 -3,-1 -7,1 -8,4 -1,3 1,7 4,8 0,0 1,0 1,2 1,2 1,8 -7,22l0 1c-1,1 -1,2 -2,3 -9,15 -12,26 -8,34 3,7 10,9 13,9z"/>
  </g>
  <g id="_155130944">
   <path class="fil0" d="M130 93l0 0c2,0 4,-1 5,-2 1,-2 2,-4 1,-6 0,0 -3,-10 1,-18 5,-9 7,-16 5,-22 -2,-5 -6,-7 -7,-7 -3,-1 -6,1 -7,4 0,2 0,3 0,5 1,1 2,2 3,3 0,0 -1,0 -1,0 0,0 1,3 -4,11l0 1c0,1 -1,1 -1,2 -6,10 -8,17 -5,23 2,4 7,6 10,7z"/>
  </g>
 </g>
</svg>
