<svg xmlns="http://www.w3.org/2000/svg" fill="#fff" viewBox="0 0 612 612">
    <g id="Layer_x0020_1"><path class="fil0" d="M564.886 538.032H47.094C21.124 538.032 0 516.896 0 490.917v-268.81c0-3.61 1.92-6.96 5.056-8.758 3.145-1.8 6.978-1.81 10.123.01l2.274 1.263 256.858 146.773c19.325 11.043 44.07 11.043 63.405 0L596.82 213.36c3.146-1.82 6.98-1.812 10.123-.01 3.135 1.81 5.057 5.146 5.057 8.756v268.81c0 25.98-21.135 47.116-47.114 47.116zM20.226 239.5v251.417c0 14.824 12.053 26.88 26.868 26.88h517.792c14.825 0 26.88-12.056 26.88-26.88V239.5L347.738 378.952c-25.444 14.52-58.057 14.54-83.48 0L20.225 239.5zm285.77 113.573c-8.182 0-16.262-2.154-23.36-6.23L25.29 199.79C9.86 191.92 0 175.84 0 158.053v-36.98c0-25.97 21.125-47.105 47.094-47.105h517.792c25.97 0 47.104 21.135 47.104 47.104v36.98c0 17.79-9.85 33.868-25.696 41.958l-256.94 146.835c-7.088 4.074-15.178 6.228-23.36 6.228zM47.093 94.193c-14.815 0-26.87 12.054-26.87 26.88v36.98c0 10.143 5.634 19.325 14.684 23.946l257.77 147.278c8.12 4.662 18.535 4.643 26.636.01l257.363-147.066c9.476-4.854 15.088-14.026 15.088-24.18v-36.97c.01-14.825-12.054-26.88-26.88-26.88H47.096z"/></g>
</svg>