<?xml version="1.0" encoding="utf-8"?>
<svg xmlns="http://www.w3.org/2000/svg">
<symbol id="certificate" fill="#000" viewBox="0 0 375 389"><g id="Layer_x0020_1"><path class="fil0" d="M381 285c-1-3-3-4-6-5l-54-8-24-47c-2-5-10-5-12 0l-24 47-54 8c-3 0-5 2-6 5s0 5 2 7l39 37-9 52c0 3 1 5 3 7s5 2 7 1l48-25 48 25c1 1 2 1 3 1s3 0 4-1c2-2 3-4 3-7l-9-52 39-37c2-2 3-5 2-7zm-53 36c-2 2-2 4-2 6l7 42-39-20c-1-1-2-1-3-1s-2 0-3 1l-39 20 7-42c0-2 0-5-2-6l-31-29 43-6c2 0 4-2 5-4l20-38 20 38c1 2 3 3 5 4l43 6-31 29z" id="_157326656"/><path class="fil0" d="M312 77H187c-4 0-7 3-7 7s3 7 7 7h125c4 0 7-3 7-7s-3-7-7-7z" id="_157326584"/><path class="fil0" d="M312 174H187c-4 0-7 3-7 7s3 7 7 7h125c4 0 7-3 7-7s-3-7-7-7z" id="_157327496"/><path class="fil0" d="M143 43c-3-3-7-2-10 1L90 95 63 75c-3-2-7-2-10 1-2 3-2 7 1 10l32 24c1 1 3 1 4 1 2 0 4-1 5-2l48-56c2-3 2-7-1-10z" id="_157327472"/><path class="fil0" d="M143 141c-3-2-7-2-10 1l-43 51-27-20c-3-2-7-2-10 1-2 3-2 7 1 10l32 24c1 1 3 1 4 1 2 0 4-1 5-2l48-56c2-3 2-7-1-10z" id="_157327328"/><path class="fil0" d="M133 246l-43 51-27-20c-3-2-7-2-10 1-2 3-2 7 1 10l32 24c1 1 3 1 4 1 2 0 4-1 5-2l48-56c2-3 2-7-1-10-3-2-7-2-10 1z" id="_157327568"/><path class="fil0" d="M187 355H84c-39 0-71-32-71-71V78C13 39 45 7 84 7h206c39 0 71 32 71 71v166c0 4 3 7 7 7s7-3 7-7V78c0-47-38-85-84-85H85C38-7 1 31 1 78v206c0 47 38 85 84 85h103c4 0 7-3 7-7s-3-7-7-7z" id="_157326896"/></g>
</symbol>
<symbol id="clock" fill="#000" viewBox="0 0 417 417"><g id="Layer_x0020_1"><path class="fil0" d="M208 0C93 0 0 93 0 208s93 208 208 208 208-93 208-208S323 0 208 0zm0 403c-107 0-194-87-194-194S101 15 208 15s194 87 194 194-87 194-194 194z" id="_167696160"/><path class="fil0" d="M215 181v-70c0-4-3-7-7-7s-7 3-7 7v70c-10 3-17 10-20 20h-50c-4 0-7 3-7 7s3 7 7 7h50c3 12 14 21 27 21 15 0 28-12 28-28 0-13-9-24-21-27zm-7 41c-8 0-14-6-14-14s6-14 14-14 14 6 14 14-6 14-14 14z" id="_167696400"/><path class="fil0" d="M208 69c4 0 7-3 7-7v-7c0-4-3-7-7-7s-7 3-7 7v7c0 4 3 7 7 7z" id="_167697000"/><path class="fil0" d="M208 346c-4 0-7 3-7 7v7c0 4 3 7 7 7s7-3 7-7v-7c0-4-3-7-7-7z" id="_167697288"/><path class="fil0" d="M361 201h-7c-4 0-7 3-7 7s3 7 7 7h7c4 0 7-3 7-7s-3-7-7-7z" id="_167696640"/><path class="fil0" d="M63 201h-7c-4 0-7 3-7 7s3 7 7 7h7c4 0 7-3 7-7s-3-7-7-7z" id="_167696880"/><path class="fil0" d="M311 95l-5 5c-3 3-3 7 0 10 1 1 3 2 5 2s4-1 5-2l5-5c3-3 3-7 0-10s-7-3-10 0z" id="_167696712"/><path class="fil0" d="M100 306l-5 5c-3 3-3 7 0 10 1 1 3 2 5 2s4-1 5-2l5-5c3-3 3-7 0-10s-7-3-10 0z" id="_167698128"/><path class="fil0" d="M316 306c-3-3-7-3-10 0s-3 7 0 10l5 5c1 1 3 2 5 2s4-1 5-2c3-3 3-7 0-10l-5-5z" id="_167697744"/><path class="fil0" d="M105 95c-3-3-7-3-10 0s-3 7 0 10l5 5c1 1 3 2 5 2s4-1 5-2c3-3 3-7 0-10l-5-5z" id="_167697648"/></g>
</symbol>  
<symbol id="green-mark" fill="#6a9c00" viewBox="0 0 208 181"><g id="Layer_x0020_1"><path class="fil0" d="M185 1l29 24c2 1 2 4 1 6L91 179c-1 1-2 2-4 1-1 0-2 0-3-1L2 110c-2-2-2-4-1-6l24-29c1-2 4-2 6 0l50 42L179 1c2-2 4-2 6 0z" id="_168877336"/></g>
</symbol>
<symbol id="red-mark" fill="#c20000" viewBox="0 0 181 181"><g id="Layer_x0020_1"><path class="fil0" d="M121 90c-2-2-2-4 0-6l64-64c2-2 3-4 3-6s-1-4-3-6L173-4c-2-2-4-3-6-3-3 0-4 1-6 3L97 60c-2 2-4 2-6 0L27-4c-2-2-4-3-6-3s-4 1-6 3L3 8c-2 2-3 4-3 6s1 4 3 6l64 64c2 2 2 4 0 6L3 154c-2 2-3 4-3 6s1 4 3 6l12 12c2 2 4 3 6 3s4-1 6-3l64-64c2-2 4-2 6 0l64 64c2 2 4 3 6 3s4-1 6-3l12-12c2-2 3-4 3-6s-1-4-3-6l-64-64z" id="_152715672"/></g>
</symbol>
  <symbol id="dark-star" fill="#222" width="15" height="15" viewBox="0 0 90.000000 90.000000"><g id="Layer_x0020_1"><path d="M40.6 1.7c-.3 1-1 2.5-1.5 3.3-.5.8-2.4 4.6-4.1 8.5-6.8 15.4-7.4 15.9-22.7 17.5C-3 32.6-3.6 35 8.2 47.4c4.5 4.8 8.7 9.4 9.3 10.4 1.3 1.8.6 9.5-2 22.1-1.5 7.6-1.1 10.1 2 10.1 2.4 0 15.8-6.6 19.6-9.7 3.8-3 8.8-1.9 18.4 4C63.1 89 65.3 90 68 90c2.8 0 3-.3 3-3.6 0-1.9-.6-6.5-1.4-10.2-.8-3.7-1.7-9.1-1.9-12-.5-6.1 0-7 11.1-18.3 10.7-10.9 9.9-13.1-4.9-14.8-4.6-.5-10.2-1.6-12.4-2.3-4.2-1.4-5.1-2.8-14.2-22.5-2.8-6.3-5.5-8.1-6.7-4.6z"/></g>
</symbol>
</svg>