<?xml version="1.0" encoding="utf-8"?>
<svg xmlns="http://www.w3.org/2000/svg">
<symbol id="android" viewBox="0 0 403 458"><g id="Layer_x0020_1"><path class="fil0" d="M368 146c-15 0-28 13-28 28v111c0 15 12 28 28 28 15 0 28-13 28-28V174c0-15-12-28-28-28zm-333 0c-15 0-28 13-28 28v111c0 15 12 28 28 28 15 0 28-13 28-28V174c0-15-12-28-28-28zm42 181c0 23 19 42 42 42h14v56c0 15 12 28 28 28 15 0 28-13 28-28v-56h28v56c0 15 12 28 28 28 15 0 28-13 28-28v-56h14c23 0 42-19 42-42V174H79v153zM253 46l18-34c1-2 0-4-1-5-2-1-4 0-5 1l-18 34c-14-5-29-8-45-8s-31 3-45 8L139 8c-1-2-3-2-5-1s-2 3-1 5l18 34c-39 18-68 55-73 100h248c-5-45-33-82-73-100zm-107 79c-11 0-20-9-20-20s9-20 20-20 20 9 20 20-9 20-20 20zm111 0c-11 0-20-9-20-20s9-20 20-20 20 9 20 20-9 20-20 20z" id="_161260352"/></g>
</symbol>
<symbol id="apple" viewBox="0 0 375 458"><g id="Layer_x0020_1"><path class="fil0" d="M309 243c-1-56 46-83 48-85-26-38-67-43-81-44-35-4-68 20-85 20-18 0-45-20-73-19-38 1-73 22-92 56-39 68-10 169 28 224 19 27 41 57 70 56 28-1 39-18 73-18s44 18 73 18c30-1 49-28 68-55 21-31 30-62 31-63-1 0-59-23-60-90zM253 78c16-19 26-45 23-71-22 1-49 15-65 34-14 17-27 43-24 69 25 2 50-13 66-31z" id="_160502144"/></g>
</symbol>
<symbol id="windows" viewBox="0 0 458 458"><g id="Layer_x0020_1"><path class="fil0" d="M7 214V70l178-24v169H7zM214 41L451 7v207H214V41zm237 203v207l-237-33V244h237zM184 414L6 390V244h178v170z" id="_162212688"/></g>
</symbol>
</svg>
