<?xml version="1.0" encoding="utf-8"?>
<svg xmlns="http://www.w3.org/2000/svg">
<symbol id="cloud-download" viewBox="0 0 32 32"><path d="M20.05 25.363l.756.756-4.775 4.774-4.774-4.775.756-.757L15.5 28.85V14.896h1.063V28.85l3.488-3.487zM26.175 9.57c0-.09.012-.17.012-.25 0-4.57-3.7-8.27-8.262-8.27-3.287 0-6.12 1.925-7.45 4.706C9.9 5.47 9.25 5.3 8.563 5.3c-2.112 0-3.862 1.537-4.2 3.55C1.85 9.713.038 12.094.038 14.9c0 3.53 2.862 6.394 6.394 6.394h6.938v-1.07H6.432c-2.938 0-5.325-2.393-5.325-5.33 0-2.275 1.45-4.3 3.606-5.044l.6-.206.106-.625c.262-1.545 1.586-2.663 3.15-2.663.5 0 .98.12 1.43.344l.975.488.47-.98c1.193-2.495 3.737-4.1 6.487-4.1 3.962.012 7.194 3.236 7.194 7.205 0 .02 0 .044-.006.07-.006.05-.006.105-.006.16l-.025 1.09 1.086.005c2.637.006 4.788 2.162 4.788 4.8 0 2.63-2.144 4.78-4.775 4.794h-7.495v1.07h7.494c3.224-.02 5.836-2.638 5.836-5.864 0-3.238-2.62-5.863-5.85-5.87z"/>
</symbol>
<symbol id="angle-right"><g id="icomoon-ignore"></g>
<path d="M19.159 16.767l0.754-0.754-6.035-6.035-0.754 0.754 5.281 5.281-5.256 5.256 0.754 0.754 3.013-3.013z"></path>
</symbol>
</svg>
