<?xml version="1.0" encoding="utf-8"?>
<svg xmlns="http://www.w3.org/2000/svg">
<symbol id="location" viewBox="0 0 430.114 430.114"><path d="M356.208 107.05c-1.53-5.737-4.64-11.85-6.94-17.204C321.746 23.704 261.61 0 213.055 0c-65 0-136.592 43.586-146.15 133.427v18.355c0 .766.264 7.647.64 11.09 5.357 42.815 39.142 88.32 64.374 131.135 27.145 45.873 55.313 91 83.22 136.106 17.208-29.436 34.354-59.26 51.17-87.933 4.583-8.415 9.903-16.825 14.49-24.857 3.06-5.348 8.9-10.696 11.57-15.672 27.145-49.698 70.838-99.78 70.838-149.103v-20.262c0-5.347-6.627-24.08-7-25.234zm-141.963 92.143c-19.107 0-40.02-9.554-50.344-35.94-1.537-4.2-1.413-12.616-1.413-13.387v-11.852c0-33.636 28.56-48.932 53.406-48.932 30.588 0 54.245 24.472 54.245 55.06 0 30.587-25.305 55.05-55.893 55.05z"/>
</symbol>
<symbol id="message" viewBox="0 0 612 612"><path d="M306.768 346.814h.13c4.616 0 9.177-1.34 12.867-3.777l1-.643c.22-.142.447-.27.676-.424l11.66-9.645L611.357 102.7c-.576-.794-1.557-1.338-2.602-1.338H3.233c-.75 0-1.448.272-2.003.73l291.125 239.953c3.67 3.038 8.904 4.77 14.413 4.77zM0 133.9v340.37l208.55-168.472L0 133.898zm403.668 173.04L612 474.357V135.03L403.668 306.94zm-66.237 54.645c-8.304 6.814-19.167 10.57-30.575 10.57-11.45 0-22.304-3.734-30.587-10.516l-47.765-39.395L0 506.805v.588c0 1.753 1.502 3.244 3.276 3.244h605.49c1.742 0 3.233-1.49 3.233-3.255v-.544L383.692 323.4l-46.262 38.185z" />
</symbol>
<symbol id="phone" viewBox="0 0 35 35"><path d="M25.302 0H9.698c-1.3 0-2.364 1.063-2.364 2.364v30.27C7.334 33.937 8.398 35 9.698 35h15.604c1.3 0 2.364-1.062 2.364-2.364V2.364c0-1.3-1.064-2.364-2.364-2.364zM15.004 1.704h4.992c.158 0 .286.128.286.287 0 .16-.128.287-.286.287h-4.992c-.158 0-.286-.128-.286-.286 0-.158.128-.286.286-.286zM17.5 33.818c-.653 0-1.182-.53-1.182-1.183s.53-1.182 1.182-1.182 1.182.528 1.182 1.182-.53 1.183-1.182 1.183zm8.52-3.193H8.98V3.75h17.04v26.875z"/>
</symbol></svg>