<svg xmlns="http://www.w3.org/2000/svg" width="7" height="4" viewBox="0 0 97 56" shape-rendering="geometricPrecision" text-rendering="geometricPrecision" image-rendering="optimizeQuality" fill-rule="evenodd" clip-rule="evenodd"><defs><style><![CDATA[
    .fil0 {fill:#474747}
   ]]></style></defs><g id="Layer_x0020_1"><path class="fil0" d="M11 2l43 43c3 3 3 7 0 9-3 3-7 3-9 0L2 11c-3-3-3-7 0-9 3-3 7-3 9 0z" id="_262981608"/><path class="fil0" d="M43 44L86 1c3-3 7-3 9 0 3 3 3 7 0 9L52 53c-3 3-7 3-9 0-3-3-3-7 0-9z" id="_262981920"/></g></svg>