<?xml version="1.0" encoding="utf-8"?>
<svg xmlns="http://www.w3.org/2000/svg">
<symbol id="params" viewBox="0 0 444 444"><g id="Layer_x0020_1"><path class="fil0" d="M111 84V42c0-23-19-42-42-42S27 19 27 42v42C10 97-1 117-1 139c0 23 11 43 28 55v209c0 23 19 42 42 42s42-19 42-42V194c17-13 28-33 28-55 0-23-11-43-28-55zM55 42c0-8 6-14 14-14s14 6 14 14v29c-4-1-9-1-14-1s-9 0-14 1V42zm28 361c0 8-6 14-14 14s-14-6-14-14V207c4 1 9 1 14 1s9 0 14-1v196zm26-252c0 1 0 1-1 2-1 4-3 7-5 10s-5 6-9 9c-3 3-7 5-11 6-4 2-9 3-14 3s-10-1-14-3c-4-1-8-3-11-6-3-2-6-5-9-9-2-3-4-7-5-10 0-1 0-1-1-2-1-4-2-8-2-12s1-8 2-12c0-1 0-1 1-2 1-4 3-7 5-10s5-6 9-9c3-2 7-5 11-6 4-2 9-3 14-3s10 1 14 3c4 1 8 3 11 6 3 2 6 5 9 9 2 3 4 7 5 10 0 1 0 1 1 2 1 4 2 8 2 12s-1 8-2 12z" id="_162610608"/><path class="fil0" d="M417 84V42c0-23-19-42-42-42s-42 19-42 42v42c-17 13-28 33-28 55 0 23 11 43 28 55v209c0 23 19 42 42 42s42-19 42-42V194c17-13 28-33 28-55 0-23-11-43-28-55zm-56-42c0-8 6-14 14-14s14 6 14 14v29c-4-1-9-1-14-1s-9 0-14 1V42zm28 361c0 8-6 14-14 14s-14-6-14-14V207c4 1 9 1 14 1s9 0 14-1v196zm26-252c0 1 0 1-1 2-1 4-3 7-5 10s-5 6-9 9c-3 3-7 5-11 6-4 2-9 3-14 3s-10-1-14-3c-4-1-8-3-11-6-3-2-6-5-9-9-2-3-4-7-5-10 0-1 0-1-1-2-1-4-2-8-2-12s1-8 2-12c0-1 0-1 1-2 1-4 3-7 5-10s5-6 9-9c3-2 7-5 11-6 4-2 9-3 14-3s10 1 14 3c4 1 8 3 11 6 3 2 6 5 9 9 2 3 4 7 5 10 0 1 0 1 1 2 1 4 2 8 2 12s-1 8-2 12z" id="_162610944"/><path class="fil0" d="M264 250V41c0-23-19-42-42-42s-42 19-42 42v209c-17 13-28 33-28 55 0 23 11 43 28 55v42c0 23 19 42 42 42s42-19 42-42v-42c17-13 28-33 28-55 0-23-11-43-28-55zM208 41c0-8 6-14 14-14s14 6 14 14v196c-4-1-9-1-14-1s-9 0-14 1V41zm28 361c0 8-6 14-14 14s-14-6-14-14v-29c4 1 9 1 14 1s9 0 14-1v29zm26-86c0 1 0 1-1 2-1 4-3 7-5 10s-5 6-9 9c-3 3-7 5-11 6-4 2-9 3-14 3s-10-1-14-3c-4-1-8-3-11-6-3-2-6-5-9-9-2-3-4-7-5-10 0-1 0-1-1-2-1-4-2-8-2-12s1-8 2-12c0-1 0-1 1-2 1-4 3-7 5-10s5-6 9-9c3-2 7-5 11-6 4-2 9-3 14-3s10 1 14 3c4 1 8 3 11 6 3 2 6 5 9 9 2 3 4 7 5 10 0 1 0 1 1 2 1 4 2 8 2 12s-1 8-2 12z" id="_162610632"/></g>
</symbol>
<symbol id="settings" viewBox="0 0 444 444"><g id="Layer_x0020_1"><path class="fil0" d="M422 176l-43-9c-2-6-5-12-7-18l24-36c7-11 6-26-3-35l-27-27c-5-5-12-8-20-8-5 0-11 2-15 5l-36 24c-6-3-12-5-18-7l-9-43c-3-13-14-22-27-22h-38c-13 0-25 9-27 22l-9 43c-6 2-12 5-18 7l-36-24c-5-3-10-5-15-5-7 0-14 3-20 8L51 78c-9 9-11 24-3 35l24 36c-3 6-5 12-7 18l-43 9c-13 3-22 14-22 27v38c0 13 9 25 22 27l43 9c2 6 5 12 7 18l-24 36c-7 11-6 26 3 35l27 27c5 5 12 8 20 8 5 0 11-2 15-5l36-24c6 3 12 5 18 7l9 43c3 13 14 22 27 22h38c13 0 25-9 27-22l9-43c6-2 12-5 18-7l36 24c5 3 10 5 15 5 7 0 14-3 20-8l27-27c9-9 11-24 3-35l-24-36c3-6 5-12 7-18l43-9c13-3 22-14 22-27v-38c0-13-9-25-22-27zm-48 74c-10 2-18 9-21 18l-6 15c-4 9-4 19 2 28l24 36-27 27-36-24c-5-3-10-5-15-5-4 0-8 1-12 3l-15 6c-9 3-16 11-18 21l-9 43h-38l-9-43c-2-10-9-18-18-21l-15-6c-4-2-8-3-12-3-5 0-11 2-15 5l-36 24-27-27 24-36c5-8 6-19 2-28l-6-15c-3-9-11-16-21-18l-43-9v-38l43-9c10-2 18-9 21-18l6-15c4-9 4-19-2-28L71 97l27-27 36 24c5 3 10 5 15 5 4 0 8-1 12-3l15-6c9-3 16-11 18-21l9-43h38l9 43c2 10 9 18 18 21l15 6c4 2 8 3 12 3 5 0 11-2 15-5l36-24 27 27-24 36c-5 8-6 19-2 28l6 15c3 9 11 16 21 18l43 9v38l-43 9z" id="_155060064"/><path class="fil0" d="M222 125c-54 0-97 44-97 97 0 54 44 97 97 97 54 0 97-44 97-97 0-54-44-97-97-97zm0 182c-47 0-85-38-85-85s38-85 85-85 85 38 85 85-38 85-85 85z" id="_151399752"/><path class="fil0" d="M222 167c-31 0-56 25-56 56s25 56 56 56 56-25 56-56-25-56-56-56zm0 97c-23 0-42-19-42-42s19-42 42-42 42 19 42 42-19 42-42 42z" id="_261432040"/></g>
</symbol>
<symbol id="truck" viewBox="0 0 444 361"><g id="Layer_x0020_1"><path class="fil0" d="M345 117c-3-4-7-6-12-6h-14c-8 0-14 6-14 14v83c0 8 6 14 14 14h56c8 0 14-6 14-14v-21c0-3-1-5-2-8l-42-63zm30 91h-56v-83h14l42 62v21z" id="_168293896"/><path class="fil0" d="M437 171l-56-83c-8-12-21-19-35-19h-56V41c0-23-19-42-42-42H40C17-1-2 18-2 41v153c0 23 19 42 42 42v42c0 23 19 42 42 42h16c6 24 28 42 54 42s47-18 54-42h73c6 24 28 42 54 42s47-18 54-42h16c23 0 42-19 42-42v-83c0-8-2-16-7-23zM41 208c-8 0-14-6-14-14V41c0-8 6-14 14-14h208c8 0 14 6 14 14v153c0 8-6 14-14 14H41zm111 125c-15 0-28-12-28-28 0-15 12-28 28-28 15 0 28 12 28 28 0 15-12 28-28 28zm181 0c-15 0-28-12-28-28 0-15 12-28 28-28 15 0 28 12 28 28 0 15-12 28-28 28zm83-56c0 8-6 14-14 14h-16c-6-24-28-42-54-42s-47 18-54 42h-73c-6-24-28-42-54-42s-47 18-54 42H81c-8 0-14-6-14-14v-42h181c23 0 42-19 42-42V96h56c5 0 9 2 12 6l56 83c2 2 2 5 2 8v83z" id="_163896872"/></g>
</symbol>
<symbol id="arrow" viewBox="0 0 139 125"><g id="Layer_x0020_1"><path class="fil0" d="M77 0L65 13l40 41H0v17h105l-40 41 12 13 62-62z" id="_161623096"/></g></svg>
</symbol>
</svg>