<svg xmlns="http://www.w3.org/2000/svg" width="122.666" height="122.666" viewBox="0 0 1278 1278" shape-rendering="geometricPrecision" text-rendering="geometricPrecision" image-rendering="optimizeQuality" fill-rule="evenodd" fill="#969696" clip-rule="evenodd"><g id="Layer_x0020_1"><path class="fil0" d="M1244 364l-49-64c2-3 4-7 6-10 0-1 1-1 1-2 2-3 3-7 5-10 0-1 1-2 1-3 1-3 2-5 3-8 0-1 1-3 1-4 1-3 2-6 2-8s1-3 1-5c1-3 1-6 1-9 0-2 0-3 1-5 0-2 0-4 1-6v-7-6-5c0-3 0-6-1-9 0-1 0-3-1-4 0-3-1-6-1-9 0-1 0-2-1-3-1-3-1-6-2-8 0-1 0-2-1-3-1-3-2-7-3-10 0-1-1-2-1-3-1-3-3-7-4-10 0-1-1-1-1-2-2-3-3-7-5-10v-1c-2-3-4-7-6-10 0-1-1-1-1-2-2-3-5-6-7-9 0-1-1-1-1-2-3-3-5-6-8-9s-6-6-9-8c-1 0-1-1-2-1-3-3-6-5-9-7-1 0-1-1-2-1-3-2-7-4-10-6h-1c-3-2-7-4-10-5-1 0-1-1-2-1-3-2-7-3-10-4-1 0-2-1-3-1-3-1-7-2-10-3-1 0-2-1-3-1-3-1-6-1-8-2-1 0-2 0-3-1-3-1-6-1-9-2-1 0-3 0-4-1-3 0-6-1-9-1h-18c-2 0-4 0-6 1-2 0-3 0-5 1-3 0-6 1-9 1-2 0-3 1-5 1-3 1-6 1-8 2-1 0-3 1-4 1-3 1-5 2-8 3-1 0-2 1-3 1-3 1-7 3-10 5-1 0-1 1-2 1-4 2-7 4-10 6l-64-49C852-13 758-7 700 52L53 699c-59 59-65 152-15 218l49 64c-2 3-4 7-6 10 0 1-1 1-1 2-2 3-3 7-5 10 0 1-1 2-1 3-1 3-2 5-3 8 0 1-1 3-1 4-1 3-1 5-2 8 0 2-1 3-1 5-1 3-1 6-1 9 0 2 0 3-1 5 0 2 0 4-1 6v18c0 3 0 6 1 9 0 2 0 3 1 4 0 3 1 6 1 9 0 1 0 2 1 3 1 3 1 6 2 8 0 1 0 2 1 3 1 3 2 7 3 10 0 1 1 2 1 3 1 3 3 7 4 10 0 1 1 1 1 2 2 3 3 7 5 10v1c2 3 4 7 6 10 0 1 1 1 1 2 2 3 5 6 7 9 0 1 1 1 1 2 3 3 5 6 8 9s6 6 9 8c1 0 1 1 2 1 3 3 6 5 9 7 1 0 1 1 2 1 3 2 7 4 10 6h1c3 2 7 4 10 5 1 0 1 1 2 1 3 2 7 3 10 4 1 0 2 1 3 1 3 1 7 2 10 3 1 0 2 1 3 1 3 1 6 1 8 2 1 0 2 0 3 1 3 1 6 1 9 1 1 0 3 0 4 1 3 0 6 1 9 1h18c2 0 4 0 6-1 2 0 3 0 5-1 3 0 6-1 9-1 2 0 3-1 5-1 3-1 6-1 8-2 1 0 3-1 4-1 3-1 5-2 8-3 1 0 2-1 3-1 3-1 7-3 10-5 1 0 1-1 2-1 4-2 7-4 10-6l64 49c66 50 160 44 218-15l647-647c59-59 65-152 15-218zm-957 782c-1 1-3 2-4 3-2 1-3 3-5 4s-3 2-5 3c-1 1-3 2-4 2-6 3-13 6-20 8-3 1-7 2-10 2h-1c-3 1-6 1-9 1h-24c-2 0-5-1-7-1-1 0-2 0-3-1-2 0-4-1-7-2-1 0-2-1-4-1-2-1-4-1-6-2-1 0-3-1-4-1l-6-3c-1-1-3-1-4-2-2-1-4-2-5-3s-2-1-4-2-4-3-6-4c-1-1-2-1-3-2-3-2-5-5-8-7-3-3-5-5-7-8-1-1-1-2-2-3-1-2-3-4-4-6-1-1-1-2-2-4s-2-4-3-5-1-3-2-4l-3-6c-1-1-1-3-1-4-1-2-1-4-2-6 0-1-1-2-1-4-1-2-1-4-2-7 0-1 0-2-1-3 0-2-1-5-1-7v-3-8-2-9-2c0-3 1-6 1-9v-1c1-3 1-7 2-10 2-7 5-13 8-20 1-1 2-3 2-4 1-2 2-3 3-5s2-3 4-5c1-1 2-3 3-4v-1c2-3 5-6 7-8l842-843c3-3 5-5 8-7h1c1-1 3-2 4-3 2-1 3-3 5-4s3-2 5-3c1-1 3-2 4-2 6-3 13-6 20-8 3-1 7-2 10-2h1c3-1 6-1 9-1h23c2 0 5 1 7 1 1 0 2 0 3 1 2 0 4 1 7 2 1 0 2 1 4 1 2 1 4 1 6 2 1 0 3 1 4 1l6 3c1 1 3 1 4 2 2 1 4 2 5 3s2 1 4 2 4 3 6 4c1 1 2 1 3 2 3 2 5 5 8 7 3 3 5 5 7 8 1 1 1 2 2 3 1 2 3 4 4 6 1 1 1 2 2 4s2 4 3 5 1 3 2 4l3 6c1 1 1 3 1 4 1 2 1 4 2 6 0 1 1 2 1 4 1 2 1 4 2 7 0 1 0 2 1 3 0 2 1 5 1 7v24c0 3-1 6-1 9v1c-1 3-1 7-2 10-2 7-5 13-8 20-1 1-2 3-2 4-1 2-2 3-3 5s-2 3-4 5c-1 1-2 3-3 4v1c-2 3-5 6-7 8l-842 843c-3 3-5 5-8 7h-1zM82 729L729 82c42-42 109-46 156-10l56 42-826 827-42-56c-36-47-31-114 10-156zm466 467c-42 42-109 46-156 10l-56-42 826-827 42 56c36 47 31 114-10 156l-647 647z" id="_170330464"/><path class="fil0" d="M945 379c37-37 47-81 48-84 1-5-2-10-7-11s-10 2-11 7c0 1-23 92-114 114-102 24-128 125-129 129 0 1-26 88-106 106-88 21-118 113-120 120-2 4-35 91-108 109-85 20-113 110-114 114-1 5 1 10 6 11s10-1 11-6c0-1 27-84 101-101 85-20 120-116 121-121 0-1 27-89 107-107 90-21 118-115 119-119 0-1 25-95 116-116 35-8 60-25 79-44z" id="_170331208"/></g></svg>