<svg xmlns="http://www.w3.org/2000/svg" width="26.666" height="26.666" viewBox="0 0 278 278" shape-rendering="geometricPrecision" text-rendering="geometricPrecision" image-rendering="optimizeQuality" fill-rule="evenodd" clip-rule="evenodd"><g id="Layer_x0020_1"><path class="fil0" d="M275 243v17c0 10-8 17-17 17H18c-9 0-17-8-17-17V17C1 7 9 0 18 0h241c9 0 17 8 17 17v225zM137 104c-32 0-34 35-34 35s-1 35 34 35 34-35 34-35-3-35-34-35zm103-69h-52v52h52V35zm0 104v-17h-36c1 6 2 11 2 17 0 38-31 69-69 69s-69-31-69-69c0-6 1-12 2-17H34v122h206V140z" id="_162321536" fill="#fff"/></g></svg>