<svg xmlns="http://www.w3.org/2000/svg" viewBox="0 0 444 444">
    <g id="Layer_x0020_1" fill="#f4b60d">
    <path class="fil0" d="M422 176l-43-9c-2-6-5-12-7-18l24-36c7-11 6-26-3-35l-27-27c-5-5-12-8-20-8-5 0-11 2-15 5l-36 24c-6-3-12-5-18-7l-9-43c-3-13-14-22-27-22h-38c-13 0-25 9-27 22l-9 43c-6 2-12 5-18 7l-36-24c-5-3-10-5-15-5-7 0-14 3-20 8L51 78c-9 9-11 24-3 35l24 36c-3 6-5 12-7 18l-43 9c-13 3-22 14-22 27v38c0 13 9 25 22 27l43 9c2 6 5 12 7 18l-24 36c-7 11-6 26 3 35l27 27c5 5 12 8 20 8 5 0 11-2 15-5l36-24c6 3 12 5 18 7l9 43c3 13 14 22 27 22h38c13 0 25-9 27-22l9-43c6-2 12-5 18-7l36 24c5 3 10 5 15 5 7 0 14-3 20-8l27-27c9-9 11-24 3-35l-24-36c3-6 5-12 7-18l43-9c13-3 22-14 22-27v-38c0-13-9-25-22-27zm-48 74c-10 2-18 9-21 18l-6 15c-4 9-4 19 2 28l24 36-27 27-36-24c-5-3-10-5-15-5-4 0-8 1-12 3l-15 6c-9 3-16 11-18 21l-9 43h-38l-9-43c-2-10-9-18-18-21l-15-6c-4-2-8-3-12-3-5 0-11 2-15 5l-36 24-27-27 24-36c5-8 6-19 2-28l-6-15c-3-9-11-16-21-18l-43-9v-38l43-9c10-2 18-9 21-18l6-15c4-9 4-19-2-28L71 97l27-27 36 24c5 3 10 5 15 5 4 0 8-1 12-3l15-6c9-3 16-11 18-21l9-43h38l9 43c2 10 9 18 18 21l15 6c4 2 8 3 12 3 5 0 11-2 15-5l36-24 27 27-24 36c-5 8-6 19-2 28l6 15c3 9 11 16 21 18l43 9v38l-43 9z" id="_155060064"/><path class="fil0" d="M222 125c-54 0-97 44-97 97 0 54 44 97 97 97 54 0 97-44 97-97 0-54-44-97-97-97zm0 182c-47 0-85-38-85-85s38-85 85-85 85 38 85 85-38 85-85 85z" id="_151399752"/><path class="fil0" d="M222 167c-31 0-56 25-56 56s25 56 56 56 56-25 56-56-25-56-56-56zm0 97c-23 0-42-19-42-42s19-42 42-42 42 19 42 42-19 42-42 42z" id="_261432040"/>
    </g>
</svg>