<?xml version="1.0" encoding="utf-8"?>
<svg xmlns="http://www.w3.org/2000/svg">
<symbol id="facebook" viewBox="0 0 111 222"><g id="Layer_x0020_1"><path class="fil0" d="M83 42h29V0H78C37 1 29 24 28 48v21H0v41h28v111h42V110h34l7-41H70V56c0-8 5-15 13-15z" id="_158139880"/></g>
</symbol>
<symbol id="linkedin" viewBox="0 0 222 208"><g id="Layer_x0020_1"><path class="fil0" d="M14 208h42V69H14z" id="_147866608"/><path class="fil0" d="M176 65c-20 0-38 7-51 24V70H83v139h42v-75c0-16 15-31 33-31s23 16 23 31v76h42v-79c0-55-26-65-46-65z" id="_147866776"/><path class="fil0" d="M34-1C19-1 7 10 7 23s12 24 27 24 27-11 27-24C61 9 49-1 34-1z" id="_147866872"/></g>
</symbol>
<symbol id="rss" viewBox="0 0 208 208"><g id="Layer_x0020_1"><path class="fil0" d="M28 152c-16 0-28 13-28 28s13 28 28 28c16 0 28-13 28-28s-13-28-28-28z" id="_155808440"/><path class="fil0" d="M2 70H0v39h2c54 0 97 43 97 97v2h39v-2C138 131 77 70 2 70z" id="_149712816"/><path class="fil0" d="M2 0H0v39h2c93 0 168 75 168 167v2h39v-2C209 92 116 0 2 0z" id="_301654464"/></g>
</symbol>
<symbol id="skype" viewBox="0 0 222 222"><g id="Layer_x0020_1"><path class="fil0" d="M206 126c1-5 1-10 1-15 0-55-44-99-99-99-5 0-10 0-15 1C83 5 70-1 56-1 25-1 0 24 0 55c0 13 4 24 11 34-1 7-2 14-2 21 0 55 44 99 99 99 7 0 14-1 20-2 10 9 23 14 37 14 31 0 56-25 56-56 0-15-6-29-16-40zm-52 28c-4 6-10 10-17 13-8 3-16 5-27 5-12 0-23-2-31-6-6-3-10-7-14-12s-5-10-5-15c0-3 1-5 3-7s5-3 8-3 5 1 7 2c2 2 3 4 5 7 2 4 3 7 5 9s4 5 8 6c3 2 8 2 13 2 8 0 14-2 18-5 5-3 7-7 7-12 0-4-1-7-4-9s-6-4-10-5-9-3-16-4c-9-2-17-4-23-7s-11-6-14-11c-4-4-5-10-5-17 0-6 2-12 6-17s9-9 16-11c7-3 15-4 25-4 8 0 14 1 20 3s10 4 14 7 6 6 8 9 3 6 3 9-1 5-3 8c-2 2-5 3-8 3s-5-1-7-2-3-4-5-7c-2-4-5-8-8-10s-8-4-15-4-12 1-16 4-6 6-6 10c0 2 1 4 2 6s3 3 6 4c2 1 5 2 7 3s6 2 12 3c7 2 13 3 19 5s11 4 15 7 7 6 9 10 3 9 3 15c0 7-2 13-6 19z" id="_159112400"/></g>
</symbol>
<symbol id="twitter" viewBox="0 0 236 181"><g id="Layer_x0020_1"><path class="fil0" d="M230 22c-4 2-15 6-25 7 7-4 17-15 19-25-6 4-21 10-29 10-8-9-20-14-33-14-25 0-46 21-46 46 0 4 0 7 1 10-34-1-74-18-97-48-14 24-2 51 14 61-5 0-15-1-20-5 0 16 7 37 35 45-5 3-15 2-19 1 1 13 20 31 41 31-7 8-32 24-63 19 21 13 46 20 72 20 74 0 131-60 128-134v-1-1c7-5 16-13 22-23z" id="_163484344"/></g>
</symbol></svg>