<svg xmlns="http://www.w3.org/2000/svg" viewBox="0 0 512 512"><path d="M490.667 0h-384C94.885 0 85.333 9.55 85.333 21.333v149.333c0 11.782 9.55 21.333 21.333 21.333 11.782 0 21.333-9.552 21.333-21.334v-128H469.33v426.667H128v-128C128 329.55 118.45 320 106.667 320c-11.782 0-21.333 9.55-21.333 21.333v149.333c0 11.782 9.55 21.333 21.333 21.333h384C502.45 512 512 502.447 512 490.665V21.333C512 9.55 502.45 0 490.667 0z"/><path d="M198.248 326.25c-8.33 8.332-8.33 21.84 0 30.17 8.33 8.332 21.84 8.332 30.17 0l85.333-85.332.01-.01c.494-.495.96-1.013 1.404-1.553.203-.247.38-.507.57-.76.226-.304.46-.6.672-.917.203-.304.38-.62.565-.93.172-.287.35-.566.51-.86.17-.318.313-.644.466-.97.145-.306.298-.608.43-.922.13-.315.235-.637.35-.957.12-.338.25-.67.353-1.014.096-.32.167-.646.248-.97.09-.35.187-.697.258-1.054.074-.375.12-.753.173-1.13.043-.31.103-.617.134-.933.138-1.4.138-2.812 0-4.212-.03-.315-.09-.62-.135-.933-.055-.377-.1-.756-.174-1.13-.07-.358-.17-.704-.258-1.055-.08-.324-.152-.65-.25-.97-.103-.343-.232-.676-.353-1.012-.115-.32-.22-.642-.35-.957-.13-.314-.284-.615-.43-.922-.152-.324-.296-.65-.466-.97-.16-.293-.338-.572-.51-.858-.185-.312-.36-.627-.564-.93-.21-.317-.446-.613-.673-.917-.19-.254-.366-.514-.57-.76-.442-.54-.91-1.06-1.402-1.553-.003-.004-.005-.008-.01-.01l-85.332-85.334c-8.33-8.33-21.84-8.33-30.17 0-8.33 8.33-8.33 21.84 0 30.17l48.915 48.915H21.333C9.55 234.67 0 244.22 0 256.003s9.55 21.333 21.333 21.333h225.83l-48.915 48.916z"/></svg>