<svg xmlns="http://www.w3.org/2000/svg" viewBox="0 0 444 444">
    <g id="Layer_x0020_1" fill="#f4b60d">
    <path class="fil0" d="M111 84V42c0-23-19-42-42-42S27 19 27 42v42C10 97-1 117-1 139c0 23 11 43 28 55v209c0 23 19 42 42 42s42-19 42-42V194c17-13 28-33 28-55 0-23-11-43-28-55zM55 42c0-8 6-14 14-14s14 6 14 14v29c-4-1-9-1-14-1s-9 0-14 1V42zm28 361c0 8-6 14-14 14s-14-6-14-14V207c4 1 9 1 14 1s9 0 14-1v196zm26-252c0 1 0 1-1 2-1 4-3 7-5 10s-5 6-9 9c-3 3-7 5-11 6-4 2-9 3-14 3s-10-1-14-3c-4-1-8-3-11-6-3-2-6-5-9-9-2-3-4-7-5-10 0-1 0-1-1-2-1-4-2-8-2-12s1-8 2-12c0-1 0-1 1-2 1-4 3-7 5-10s5-6 9-9c3-2 7-5 11-6 4-2 9-3 14-3s10 1 14 3c4 1 8 3 11 6 3 2 6 5 9 9 2 3 4 7 5 10 0 1 0 1 1 2 1 4 2 8 2 12s-1 8-2 12z" id="_162610608"/><path class="fil0" d="M417 84V42c0-23-19-42-42-42s-42 19-42 42v42c-17 13-28 33-28 55 0 23 11 43 28 55v209c0 23 19 42 42 42s42-19 42-42V194c17-13 28-33 28-55 0-23-11-43-28-55zm-56-42c0-8 6-14 14-14s14 6 14 14v29c-4-1-9-1-14-1s-9 0-14 1V42zm28 361c0 8-6 14-14 14s-14-6-14-14V207c4 1 9 1 14 1s9 0 14-1v196zm26-252c0 1 0 1-1 2-1 4-3 7-5 10s-5 6-9 9c-3 3-7 5-11 6-4 2-9 3-14 3s-10-1-14-3c-4-1-8-3-11-6-3-2-6-5-9-9-2-3-4-7-5-10 0-1 0-1-1-2-1-4-2-8-2-12s1-8 2-12c0-1 0-1 1-2 1-4 3-7 5-10s5-6 9-9c3-2 7-5 11-6 4-2 9-3 14-3s10 1 14 3c4 1 8 3 11 6 3 2 6 5 9 9 2 3 4 7 5 10 0 1 0 1 1 2 1 4 2 8 2 12s-1 8-2 12z" id="_162610944"/><path class="fil0" d="M264 250V41c0-23-19-42-42-42s-42 19-42 42v209c-17 13-28 33-28 55 0 23 11 43 28 55v42c0 23 19 42 42 42s42-19 42-42v-42c17-13 28-33 28-55 0-23-11-43-28-55zM208 41c0-8 6-14 14-14s14 6 14 14v196c-4-1-9-1-14-1s-9 0-14 1V41zm28 361c0 8-6 14-14 14s-14-6-14-14v-29c4 1 9 1 14 1s9 0 14-1v29zm26-86c0 1 0 1-1 2-1 4-3 7-5 10s-5 6-9 9c-3 3-7 5-11 6-4 2-9 3-14 3s-10-1-14-3c-4-1-8-3-11-6-3-2-6-5-9-9-2-3-4-7-5-10 0-1 0-1-1-2-1-4-2-8-2-12s1-8 2-12c0-1 0-1 1-2 1-4 3-7 5-10s5-6 9-9c3-2 7-5 11-6 4-2 9-3 14-3s10 1 14 3c4 1 8 3 11 6 3 2 6 5 9 9 2 3 4 7 5 10 0 1 0 1 1 2 1 4 2 8 2 12s-1 8-2 12z" id="_162610632"/>
    </g>
</svg>