<svg xmlns="http://www.w3.org/2000/svg" width="17.333" height="21.333" viewBox="0 0 181 222" shape-rendering="geometricPrecision" text-rendering="geometricPrecision" image-rendering="optimizeQuality" fill-rule="evenodd" clip-rule="evenodd"><defs><style><![CDATA[
    .fil0 {fill:none;fill-rule:nonzero}
   ]]></style></defs><g id="Layer_x0020_1"><path class="fil0" d="M170 194L127 79V45c8-3 14-10 14-19v-6c0-11-9-20-21-20H59C48 0 38 9 38 20v6c0 9 6 16 14 19v34L10 194c-3 6-2 13 2 19s10 9 17 9h121c7 0 13-3 17-9s5-13 2-19zM57 168c0-4 3-7 7-7s7 3 7 7-3 7-7 7-7-3-7-7zm45 6c7 0 12 5 12 12s-5 12-12 12-12-5-12-12 5-12 12-12zm-10-26c0-5 4-9 9-9s9 4 9 9-4 9-9 9-9-4-9-9zM67 82V33h-7c-4 0-7-3-7-7v-6c0-4 3-7 7-7h61c4 0 7 3 7 7v6c0 4-3 7-7 7h-7v49l12 32c-9 9-74 10-74 10h-1l16-43z" id="_285066752"/><path class="fil0" d="M85 108c5 0 9-4 9-9s-4-9-9-9-9 4-9 9 4 9 9 9z" id="_285066248"/></g></svg>