<svg xmlns="http://www.w3.org/2000/svg" width="21.333" height="22.667" viewBox="0 0 222 236" shape-rendering="geometricPrecision" text-rendering="geometricPrecision" image-rendering="optimizeQuality" fill-rule="evenodd" clip-rule="evenodd"><defs><style><![CDATA[
    .fil0 {fill:none;fill-rule:nonzero}
   ]]></style></defs><g id="Layer_x0020_1"><path class="fil0" d="M185 199c-8-1-18-1-28-1 9-8 17-19 23-31 3 3 6 5 10 6 2 0 4 1 5 1 4 0 8-1 12-3 5-3 9-8 10-14s0-12-3-17c-5-9-15-12-24-10 0-4 1-8 1-12s-3-8-8-8H39c-4 0-8 4-8 8 0 34 14 63 34 81-10 0-20 1-28 1-29 2-37 4-37 13s8 11 37 13c20 1 46 2 74 2s54-1 74-2c29-2 37-4 37-13s-8-11-37-13zm4-60c6-4 14-2 18 4 2 3 2 7 2 10-1 3-3 6-6 8s-6 2-10 2c-3-1-6-3-8-6l-1-1c2-6 4-11 5-17zM48 124h128c-3 42-30 75-64 75-33 0-61-33-64-75z" id="_155130272"/><path class="fil0" d="M97 92h1c2 0 4-1 5-2 1-2 2-4 1-6 0 0-6-18 2-32s11-25 8-33c-3-7-9-9-9-9-3-1-7 1-8 4s1 7 4 8c0 0 1 0 1 2 1 2 1 8-7 22v1c-1 1-1 2-2 3-9 15-12 26-8 34 3 7 10 9 13 9z" id="_155131472"/><path class="fil0" d="M130 93c2 0 4-1 5-2 1-2 2-4 1-6 0 0-3-10 1-18 5-9 7-16 5-22-2-5-6-7-7-7-3-1-6 1-7 4v5l3 3h-1s1 3-4 11v1c0 1-1 1-1 2-6 10-8 17-5 23 2 4 7 6 10 7z" id="_155130944"/></g></svg>