<svg xmlns="http://www.w3.org/2000/svg" width="22.667" height="21.333" viewBox="0 0 236 222" shape-rendering="geometricPrecision" text-rendering="geometricPrecision" image-rendering="optimizeQuality" fill-rule="evenodd" clip-rule="evenodd"><defs><style><![CDATA[
    .fil0 {fill:none;fill-rule:nonzero}
   ]]></style></defs><g id="Layer_x0020_1"><path class="fil0" d="M228 7c-1-1-2-1-2 0L8 117c-1 0-1 1-1 2s1 2 2 2l69 22h2l105-89-81 94c0 1-1 1 0 2 0 1 1 1 2 1l81 24h2c1 0 1-1 1-1L230 9c0-1 0-2-1-2z" id="_155470528"/><path class="fil0" d="M129 176l-22-7h-2c-1 0-1 1-1 2v42c0 1 1 2 2 2h1c1 0 1 0 2-1l22-35v-2c0-1-1-1-1-1z" id="_155471632"/></g></svg>