<?xml version="1.0" encoding="UTF-8"?>
<!DOCTYPE svg PUBLIC "-//W3C//DTD SVG 1.1//EN" "http://www.w3.org/Graphics/SVG/1.1/DTD/svg11.dtd">
<!-- Creator: CorelDRAW X6 -->
<svg xmlns="http://www.w3.org/2000/svg" xml:space="preserve" width="0.23611in" height="0.22222in" version="1.1" style="shape-rendering:geometricPrecision; text-rendering:geometricPrecision; image-rendering:optimizeQuality; fill-rule:evenodd; clip-rule:evenodd"
viewBox="0 0 236 222"
 xmlns:xlink="http://www.w3.org/1999/xlink">
 <defs>
  <style type="text/css">
   <![CDATA[
    .fil0 {fill:none;fill-rule:nonzero}
   ]]>
  </style>
 </defs>
 <g id="Layer_x0020_1">
  <metadata id="CorelCorpID_0Corel-Layer"/>
  <g id="_155470528">
   <path class="fil0" d="M228 7c-1,-1 -2,-1 -2,0l-218 110c-1,0 -1,1 -1,2 0,1 1,2 2,2l69 22c1,0 2,0 2,0l105 -89 -81 94c0,1 -1,1 0,2 0,1 1,1 2,1l81 24c0,0 0,0 1,0 0,0 1,0 1,0 1,0 1,-1 1,-1l40 -165c0,-1 0,-2 -1,-2z"/>
  </g>
  <g id="_155471632">
   <path class="fil0" d="M129 176l-22 -7c-1,0 -1,0 -2,0 -1,0 -1,1 -1,2l0 42c0,1 1,2 2,2 0,0 0,0 1,0 1,0 1,0 2,-1l22 -35c0,-1 0,-1 0,-2 0,-1 -1,-1 -1,-1z"/>
  </g>
 </g>
</svg>
