<svg xmlns="http://www.w3.org/2000/svg" width="21.333" height="21.333" viewBox="0 0 222 222" shape-rendering="geometricPrecision" text-rendering="geometricPrecision" image-rendering="optimizeQuality" fill-rule="evenodd" clip-rule="evenodd"><defs><style><![CDATA[
    .fil0 {fill:none;fill-rule:nonzero}
   ]]></style></defs><g id="Layer_x0020_1"><path class="fil0" d="M204 56h-79l31-37h1c5 0 9-4 9-9s-4-9-9-9-9 4-9 9c0 1 0 2 1 3l-36 43h-3L74 13c0-1 1-2 1-3 0-5-4-9-9-9s-9 4-9 9 4 9 9 9h1l31 37H19C9 56 0 64 0 75v130c0 10 8 19 19 19h185c10 0 19-8 19-19V75c0-10-8-19-19-19zm-37 130c0 10-8 19-19 19H37c-10 0-19-8-19-19V93c0-10 8-19 19-19h111c10 0 19 8 19 19v93zm27-83c-7 0-13-6-13-13s6-13 13-13 13 6 13 13-6 13-13 13z" id="_301673816"/></g></svg>