<svg xmlns="http://www.w3.org/2000/svg" viewBox="0 0 444 361">
    <g id="Layer_x0020_1" fill="#f4b60d">
        <path class="fil0" d="M345 117c-3-4-7-6-12-6h-14c-8 0-14 6-14 14v83c0 8 6 14 14 14h56c8 0 14-6 14-14v-21c0-3-1-5-2-8l-42-63zm30 91h-56v-83h14l42 62v21z" id="_168293896"/><path class="fil0" d="M437 171l-56-83c-8-12-21-19-35-19h-56V41c0-23-19-42-42-42H40C17-1-2 18-2 41v153c0 23 19 42 42 42v42c0 23 19 42 42 42h16c6 24 28 42 54 42s47-18 54-42h73c6 24 28 42 54 42s47-18 54-42h16c23 0 42-19 42-42v-83c0-8-2-16-7-23zM41 208c-8 0-14-6-14-14V41c0-8 6-14 14-14h208c8 0 14 6 14 14v153c0 8-6 14-14 14H41zm111 125c-15 0-28-12-28-28 0-15 12-28 28-28 15 0 28 12 28 28 0 15-12 28-28 28zm181 0c-15 0-28-12-28-28 0-15 12-28 28-28 15 0 28 12 28 28 0 15-12 28-28 28zm83-56c0 8-6 14-14 14h-16c-6-24-28-42-54-42s-47 18-54 42h-73c-6-24-28-42-54-42s-47 18-54 42H81c-8 0-14-6-14-14v-42h181c23 0 42-19 42-42V96h56c5 0 9 2 12 6l56 83c2 2 2 5 2 8v83z" id="_163896872" />
    </g>
</svg>