<?xml version="1.0" encoding="utf-8"?>
<svg xmlns="http://www.w3.org/2000/svg">
<symbol id="arrow" viewBox="0 0 139 125"><defs><style><![CDATA[
    .fil0 {fill:none}
   ]]></style></defs><g id="Layer_x0020_1"><path class="fil0" d="M77 0L65 13l40 41H0v17h105l-40 41 12 13 62-62z" id="_161623096"/></g>
</symbol>
<symbol id="cross" viewBox="0 0 486 486"><defs><style><![CDATA[
    .fil0 {fill:none}
   ]]></style></defs><g id="Layer_x0020_1"><path class="fil0" d="M222 0h42v486h-42z" id="_161737416"/><path class="fil0" d="M486 222v42H0v-42z" id="_161737248"/></g>
</symbol>
<symbol id="email" viewBox="0 0 222 167"><defs><style><![CDATA[
    .fil0 {fill:none}
   ]]></style></defs><g id="Layer_x0020_1"><path class="fil0" d="M14 0h194c8 0 14 6 14 14v139c0 8-6 14-14 14H14c-8 0-14-6-14-14V14C0 6 6 0 14 0z" id="_159595664"/><path class="fil0" d="M56 111h111v14H56z" id="_159595184"/><path class="fil0" d="M167 28h27v28h-27z" id="_159595064"/><path class="fil0" d="M56 83h111v14H56z" id="_159596192"/></g>
</symbol>
<symbol id="facebook" viewBox="0 0 111 222"><defs><style><![CDATA[
    .fil0 {fill:none;fill-rule:nonzero}
   ]]></style></defs><g id="Layer_x0020_1"><path class="fil0" d="M83 42h29V0H78C37 1 29 24 28 48v21H0v41h28v111h42V110h34l7-41H70V56c0-8 5-15 13-15z" id="_158139880"/></g>
</symbol>
<symbol id="linkedin" viewBox="0 0 222 208"><defs><style><![CDATA[
    .fil0 {fill:none;fill-rule:nonzero}
   ]]></style></defs><g id="Layer_x0020_1"><path class="fil0" d="M14 208h42V69H14z" id="_147866608"/><path class="fil0" d="M176 65c-20 0-38 7-51 24V70H83v139h42v-75c0-16 15-31 33-31s23 16 23 31v76h42v-79c0-55-26-65-46-65z" id="_147866776"/><path class="fil0" d="M34-1C19-1 7 10 7 23s12 24 27 24 27-11 27-24C61 9 49-1 34-1z" id="_147866872"/></g>
</symbol>
<symbol id="location" viewBox="0 0 167 222"><defs><style><![CDATA[
    .fil0 {fill:none}
   ]]></style></defs><g id="Layer_x0020_1"><path class="fil0" d="M83 0c46 0 83 37 83 83S83 222 83 222 0 129 0 83 37 0 83 0z" id="_146227320"/><path class="fil0" d="M83 42c23 0 42 19 42 42s-19 42-42 42-42-19-42-42 19-42 42-42z" id="_146226960"/></g>
</symbol>
<symbol id="minus" viewBox="0 0 125 14"><defs><style><![CDATA[
    .fil0 {fill:none}
   ]]></style></defs><g id="Layer_x0020_1"><path class="fil0" d="M0 0h125v14H0z" id="_156510840"/></g>
</symbol>
<symbol id="params" viewBox="0 0 444 444"><defs><style><![CDATA[
    .fil0 {fill:none}
   ]]></style></defs><g id="Layer_x0020_1"><path class="fil0" d="M111 84V42c0-23-19-42-42-42S27 19 27 42v42C10 97-1 117-1 139c0 23 11 43 28 55v209c0 23 19 42 42 42s42-19 42-42V194c17-13 28-33 28-55 0-23-11-43-28-55zM55 42c0-8 6-14 14-14s14 6 14 14v29c-4-1-9-1-14-1s-9 0-14 1V42zm28 361c0 8-6 14-14 14s-14-6-14-14V207c4 1 9 1 14 1s9 0 14-1v196zm26-252c0 1 0 1-1 2-1 4-3 7-5 10s-5 6-9 9c-3 3-7 5-11 6-4 2-9 3-14 3s-10-1-14-3c-4-1-8-3-11-6-3-2-6-5-9-9-2-3-4-7-5-10 0-1 0-1-1-2-1-4-2-8-2-12s1-8 2-12c0-1 0-1 1-2 1-4 3-7 5-10s5-6 9-9c3-2 7-5 11-6 4-2 9-3 14-3s10 1 14 3c4 1 8 3 11 6 3 2 6 5 9 9 2 3 4 7 5 10 0 1 0 1 1 2 1 4 2 8 2 12s-1 8-2 12z" id="_162610608"/><path class="fil0" d="M417 84V42c0-23-19-42-42-42s-42 19-42 42v42c-17 13-28 33-28 55 0 23 11 43 28 55v209c0 23 19 42 42 42s42-19 42-42V194c17-13 28-33 28-55 0-23-11-43-28-55zm-56-42c0-8 6-14 14-14s14 6 14 14v29c-4-1-9-1-14-1s-9 0-14 1V42zm28 361c0 8-6 14-14 14s-14-6-14-14V207c4 1 9 1 14 1s9 0 14-1v196zm26-252c0 1 0 1-1 2-1 4-3 7-5 10s-5 6-9 9c-3 3-7 5-11 6-4 2-9 3-14 3s-10-1-14-3c-4-1-8-3-11-6-3-2-6-5-9-9-2-3-4-7-5-10 0-1 0-1-1-2-1-4-2-8-2-12s1-8 2-12c0-1 0-1 1-2 1-4 3-7 5-10s5-6 9-9c3-2 7-5 11-6 4-2 9-3 14-3s10 1 14 3c4 1 8 3 11 6 3 2 6 5 9 9 2 3 4 7 5 10 0 1 0 1 1 2 1 4 2 8 2 12s-1 8-2 12z" id="_162610944"/><path class="fil0" d="M264 250V41c0-23-19-42-42-42s-42 19-42 42v209c-17 13-28 33-28 55 0 23 11 43 28 55v42c0 23 19 42 42 42s42-19 42-42v-42c17-13 28-33 28-55 0-23-11-43-28-55zM208 41c0-8 6-14 14-14s14 6 14 14v196c-4-1-9-1-14-1s-9 0-14 1V41zm28 361c0 8-6 14-14 14s-14-6-14-14v-29c4 1 9 1 14 1s9 0 14-1v29zm26-86c0 1 0 1-1 2-1 4-3 7-5 10s-5 6-9 9c-3 3-7 5-11 6-4 2-9 3-14 3s-10-1-14-3c-4-1-8-3-11-6-3-2-6-5-9-9-2-3-4-7-5-10 0-1 0-1-1-2-1-4-2-8-2-12s1-8 2-12c0-1 0-1 1-2 1-4 3-7 5-10s5-6 9-9c3-2 7-5 11-6 4-2 9-3 14-3s10 1 14 3c4 1 8 3 11 6 3 2 6 5 9 9 2 3 4 7 5 10 0 1 0 1 1 2 1 4 2 8 2 12s-1 8-2 12z" id="_162610632"/></g>
</symbol>
<symbol id="phone" viewBox="0 0 139 222"><defs><style><![CDATA[
    .fil0 {fill:none}
   ]]></style></defs><g id="Layer_x0020_1"><path class="fil0" d="M14 0h111c8 0 14 6 14 14v194c0 8-6 14-14 14H14c-8 0-14-6-14-14V14C0 6 6 0 14 0z" id="_160537456"/><path class="fil0" d="M14 28h111v153H14z" id="_157104824"/><path class="fil0" d="M69 194c8 0 14 3 14 7s-6 7-14 7-14-3-14-7 6-7 14-7z" id="_318235512"/></g>
</symbol>
<symbol id="plus" viewBox="0 0 125 125"><defs><style><![CDATA[
    .fil0 {fill:none}
   ]]></style></defs><g id="Layer_x0020_1"><path class="fil0" d="M56 0h13v125H56z" id="_155374800"/><path class="fil0" d="M125 56v13H0V56z" id="_151938400"/></g>
</symbol>
<symbol id="pointer" viewBox="0 0 208 208"><defs><style><![CDATA[
    .fil0 {fill:none}
   ]]></style></defs><g id="Layer_x0020_1"><path class="fil0" d="M0 0h208v208H0z" id="_160218104"/></g>
</symbol>
<symbol id="pointer_active" viewBox="0 0 208 208"><defs><style><![CDATA[
    .fil0 {fill:none}
   ]]></style></defs><g id="Layer_x0020_1"><path class="fil0" d="M42 42h125v125H42z" id="_154993512"/></g>
</symbol>
<symbol id="rss" viewBox="0 0 208 208"><defs><style><![CDATA[
    .fil0 {fill:none;fill-rule:nonzero}
   ]]></style></defs><g id="Layer_x0020_1"><path class="fil0" d="M28 152c-16 0-28 13-28 28s13 28 28 28c16 0 28-13 28-28s-13-28-28-28z" id="_155808440"/><path class="fil0" d="M2 70H0v39h2c54 0 97 43 97 97v2h39v-2C138 131 77 70 2 70z" id="_149712816"/><path class="fil0" d="M2 0H0v39h2c93 0 168 75 168 167v2h39v-2C209 92 116 0 2 0z" id="_301654464"/></g>
</symbol>
<symbol id="search" viewBox="0 0 194 194"><defs><style><![CDATA[
    .fil0 {fill:none}
   ]]></style></defs><g id="Layer_x0020_1"><path class="fil0" d="M79 0c44 0 79 35 79 79s-35 79-79 79S0 123 0 79 35 0 79 0z" id="_157547824"/><path class="fil0" d="M129 133l4-4c2-2 6-2 8 0l21 21c2 2 2 6 0 8l-4 4c-2 2-6 2-8 0l-21-21c-2-2-2-6 0-8z" id="_153515504"/><path class="fil0" d="M141 155l14-14c3-3 7-3 9 0l28 28c3 3 3 7 0 9l-14 14c-3 3-7 3-9 0l-28-28c-3-3-3-7 0-9z" id="_285152264"/><path class="fil0" d="M79 30c27 0 48 22 48 48 0 27-22 48-48 48-27 0-48-22-48-48 0-27 22-48 48-48z" id="_285152456"/></g>
</symbol>
<symbol id="settings" viewBox="0 0 444 444"><defs><style><![CDATA[
    .fil0 {fill:none;fill-rule:nonzero}
   ]]></style></defs><g id="Layer_x0020_1"><path class="fil0" d="M422 176l-43-9c-2-6-5-12-7-18l24-36c7-11 6-26-3-35l-27-27c-5-5-12-8-20-8-5 0-11 2-15 5l-36 24c-6-3-12-5-18-7l-9-43c-3-13-14-22-27-22h-38c-13 0-25 9-27 22l-9 43c-6 2-12 5-18 7l-36-24c-5-3-10-5-15-5-7 0-14 3-20 8L51 78c-9 9-11 24-3 35l24 36c-3 6-5 12-7 18l-43 9c-13 3-22 14-22 27v38c0 13 9 25 22 27l43 9c2 6 5 12 7 18l-24 36c-7 11-6 26 3 35l27 27c5 5 12 8 20 8 5 0 11-2 15-5l36-24c6 3 12 5 18 7l9 43c3 13 14 22 27 22h38c13 0 25-9 27-22l9-43c6-2 12-5 18-7l36 24c5 3 10 5 15 5 7 0 14-3 20-8l27-27c9-9 11-24 3-35l-24-36c3-6 5-12 7-18l43-9c13-3 22-14 22-27v-38c0-13-9-25-22-27zm-48 74c-10 2-18 9-21 18l-6 15c-4 9-4 19 2 28l24 36-27 27-36-24c-5-3-10-5-15-5-4 0-8 1-12 3l-15 6c-9 3-16 11-18 21l-9 43h-38l-9-43c-2-10-9-18-18-21l-15-6c-4-2-8-3-12-3-5 0-11 2-15 5l-36 24-27-27 24-36c5-8 6-19 2-28l-6-15c-3-9-11-16-21-18l-43-9v-38l43-9c10-2 18-9 21-18l6-15c4-9 4-19-2-28L71 97l27-27 36 24c5 3 10 5 15 5 4 0 8-1 12-3l15-6c9-3 16-11 18-21l9-43h38l9 43c2 10 9 18 18 21l15 6c4 2 8 3 12 3 5 0 11-2 15-5l36-24 27 27-24 36c-5 8-6 19-2 28l6 15c3 9 11 16 21 18l43 9v38l-43 9z" id="_155060064"/><path class="fil0" d="M222 125c-54 0-97 44-97 97 0 54 44 97 97 97 54 0 97-44 97-97 0-54-44-97-97-97zm0 182c-47 0-85-38-85-85s38-85 85-85 85 38 85 85-38 85-85 85z" id="_151399752"/><path class="fil0" d="M222 167c-31 0-56 25-56 56s25 56 56 56 56-25 56-56-25-56-56-56zm0 97c-23 0-42-19-42-42s19-42 42-42 42 19 42 42-19 42-42 42z" id="_261432040"/></g>
</symbol>
<symbol id="skype" viewBox="0 0 222 222"><defs><style><![CDATA[
    .fil0 {fill:none;fill-rule:nonzero}
   ]]></style></defs><g id="Layer_x0020_1"><path class="fil0" d="M206 126c1-5 1-10 1-15 0-55-44-99-99-99-5 0-10 0-15 1C83 5 70-1 56-1 25-1 0 24 0 55c0 13 4 24 11 34-1 7-2 14-2 21 0 55 44 99 99 99 7 0 14-1 20-2 10 9 23 14 37 14 31 0 56-25 56-56 0-15-6-29-16-40zm-52 28c-4 6-10 10-17 13-8 3-16 5-27 5-12 0-23-2-31-6-6-3-10-7-14-12s-5-10-5-15c0-3 1-5 3-7s5-3 8-3 5 1 7 2c2 2 3 4 5 7 2 4 3 7 5 9s4 5 8 6c3 2 8 2 13 2 8 0 14-2 18-5 5-3 7-7 7-12 0-4-1-7-4-9s-6-4-10-5-9-3-16-4c-9-2-17-4-23-7s-11-6-14-11c-4-4-5-10-5-17 0-6 2-12 6-17s9-9 16-11c7-3 15-4 25-4 8 0 14 1 20 3s10 4 14 7 6 6 8 9 3 6 3 9-1 5-3 8c-2 2-5 3-8 3s-5-1-7-2-3-4-5-7c-2-4-5-8-8-10s-8-4-15-4-12 1-16 4-6 6-6 10c0 2 1 4 2 6s3 3 6 4c2 1 5 2 7 3s6 2 12 3c7 2 13 3 19 5s11 4 15 7 7 6 9 10 3 9 3 15c0 7-2 13-6 19z" id="_159112400"/></g>
</symbol>
<symbol id="truck" viewBox="0 0 444 361"><defs><style><![CDATA[
    .fil0 {fill:none;fill-rule:nonzero}
   ]]></style></defs><g id="Layer_x0020_1"><path class="fil0" d="M345 117c-3-4-7-6-12-6h-14c-8 0-14 6-14 14v83c0 8 6 14 14 14h56c8 0 14-6 14-14v-21c0-3-1-5-2-8l-42-63zm30 91h-56v-83h14l42 62v21z" id="_168293896"/><path class="fil0" d="M437 171l-56-83c-8-12-21-19-35-19h-56V41c0-23-19-42-42-42H40C17-1-2 18-2 41v153c0 23 19 42 42 42v42c0 23 19 42 42 42h16c6 24 28 42 54 42s47-18 54-42h73c6 24 28 42 54 42s47-18 54-42h16c23 0 42-19 42-42v-83c0-8-2-16-7-23zM41 208c-8 0-14-6-14-14V41c0-8 6-14 14-14h208c8 0 14 6 14 14v153c0 8-6 14-14 14H41zm111 125c-15 0-28-12-28-28 0-15 12-28 28-28 15 0 28 12 28 28 0 15-12 28-28 28zm181 0c-15 0-28-12-28-28 0-15 12-28 28-28 15 0 28 12 28 28 0 15-12 28-28 28zm83-56c0 8-6 14-14 14h-16c-6-24-28-42-54-42s-47 18-54 42h-73c-6-24-28-42-54-42s-47 18-54 42H81c-8 0-14-6-14-14v-42h181c23 0 42-19 42-42V96h56c5 0 9 2 12 6l56 83c2 2 2 5 2 8v83z" id="_163896872"/></g>
</symbol>
<symbol id="twitter" viewBox="0 0 236 181"><defs><style><![CDATA[
    .fil0 {fill:none;fill-rule:nonzero}
   ]]></style></defs><g id="Layer_x0020_1"><path class="fil0" d="M230 22c-4 2-15 6-25 7 7-4 17-15 19-25-6 4-21 10-29 10-8-9-20-14-33-14-25 0-46 21-46 46 0 4 0 7 1 10-34-1-74-18-97-48-14 24-2 51 14 61-5 0-15-1-20-5 0 16 7 37 35 45-5 3-15 2-19 1 1 13 20 31 41 31-7 8-32 24-63 19 21 13 46 20 72 20 74 0 131-60 128-134v-1-1c7-5 16-13 22-23z" id="_163484344"/></g>
</symbol></svg>