<svg xmlns="http://www.w3.org/2000/svg" fill="#000" viewBox="0 0 417 417">
    <g id="Layer_x0020_1"><path class="fil0" d="M208 0C93 0 0 93 0 208s93 208 208 208 208-93 208-208S323 0 208 0zm0 403c-107 0-194-87-194-194S101 15 208 15s194 87 194 194-87 194-194 194z" id="_167696160"/><path class="fil0" d="M215 181v-70c0-4-3-7-7-7s-7 3-7 7v70c-10 3-17 10-20 20h-50c-4 0-7 3-7 7s3 7 7 7h50c3 12 14 21 27 21 15 0 28-12 28-28 0-13-9-24-21-27zm-7 41c-8 0-14-6-14-14s6-14 14-14 14 6 14 14-6 14-14 14z" id="_167696400"/><path class="fil0" d="M208 69c4 0 7-3 7-7v-7c0-4-3-7-7-7s-7 3-7 7v7c0 4 3 7 7 7z" id="_167697000"/><path class="fil0" d="M208 346c-4 0-7 3-7 7v7c0 4 3 7 7 7s7-3 7-7v-7c0-4-3-7-7-7z" id="_167697288"/><path class="fil0" d="M361 201h-7c-4 0-7 3-7 7s3 7 7 7h7c4 0 7-3 7-7s-3-7-7-7z" id="_167696640"/><path class="fil0" d="M63 201h-7c-4 0-7 3-7 7s3 7 7 7h7c4 0 7-3 7-7s-3-7-7-7z" id="_167696880"/><path class="fil0" d="M311 95l-5 5c-3 3-3 7 0 10 1 1 3 2 5 2s4-1 5-2l5-5c3-3 3-7 0-10s-7-3-10 0z" id="_167696712"/><path class="fil0" d="M100 306l-5 5c-3 3-3 7 0 10 1 1 3 2 5 2s4-1 5-2l5-5c3-3 3-7 0-10s-7-3-10 0z" id="_167698128"/><path class="fil0" d="M316 306c-3-3-7-3-10 0s-3 7 0 10l5 5c1 1 3 2 5 2s4-1 5-2c3-3 3-7 0-10l-5-5z" id="_167697744"/><path class="fil0" d="M105 95c-3-3-7-3-10 0s-3 7 0 10l5 5c1 1 3 2 5 2s4-1 5-2c3-3 3-7 0-10l-5-5z" id="_167697648"/></g>
</svg>