<svg xmlns="http://www.w3.org/2000/svg" viewBox="0 0 29.731 29.731" fill="#fff">
    <g id="Layer_x0020_1"><path class="fil0" d="M23.895 29.73c-1.237 0-2.73-.31-4.374-.93-3.6-1.357-7.52-4.04-11.034-7.555C4.97 17.73 2.286 13.81.928 10.208-.307 6.933-.31 4.245.92 3.015c.178-.177.358-.367.544-.563 1.123-1.18 2.392-2.51 4.074-2.45C6.698.05 7.82.77 8.97 2.202c3.398 4.225 1.866 5.73.093 7.477l-.313.31c-.29.29-.838 1.632 4.26 6.73 1.664 1.664 3.083 2.882 4.217 3.62.714.463 1.99 1.165 2.515.64l.315-.317c1.744-1.77 3.25-3.296 7.473.1 1.43 1.15 2.15 2.27 2.198 3.432.07 1.68-1.27 2.953-2.452 4.075-.195.186-.385.366-.562.542-.61.612-1.588.92-2.82.92zM5.418 1c-1.195 0-2.274 1.136-3.23 2.14-.19.203-.377.4-.56.582-.917.916-.824 3.323.236 6.134 1.31 3.472 3.913 7.266 7.33 10.683 3.416 3.414 7.208 6.017 10.68 7.326 2.812 1.062 5.22 1.152 6.134.237.183-.183.38-.37.58-.56 1.028-.976 2.193-2.082 2.142-3.31-.035-.842-.65-1.75-1.825-2.694-3.52-2.83-4.503-1.832-6.135-.177l-.32.323c-.78.78-2.047.608-3.767-.51-1.193-.776-2.667-2.038-4.38-3.75-4.23-4.23-5.583-6.82-4.26-8.147l.32-.316c1.66-1.632 2.66-2.617-.17-6.138C7.244 1.65 6.338 1.036 5.495 1h-.078z"/></g>
</svg>