<?xml version="1.0" encoding="utf-8"?>
<svg xmlns="http://www.w3.org/2000/svg">
<symbol id="green-mark" >

</symbol>
  <symbol id="dark-star" fill="#222" width="15" height="15" viewBox="0 0 90.000000 90.000000"><g id="Layer_x0020_1"><path d="M40.6 1.7c-.3 1-1 2.5-1.5 3.3-.5.8-2.4 4.6-4.1 8.5-6.8 15.4-7.4 15.9-22.7 17.5C-3 32.6-3.6 35 8.2 47.4c4.5 4.8 8.7 9.4 9.3 10.4 1.3 1.8.6 9.5-2 22.1-1.5 7.6-1.1 10.1 2 10.1 2.4 0 15.8-6.6 19.6-9.7 3.8-3 8.8-1.9 18.4 4C63.1 89 65.3 90 68 90c2.8 0 3-.3 3-3.6 0-1.9-.6-6.5-1.4-10.2-.8-3.7-1.7-9.1-1.9-12-.5-6.1 0-7 11.1-18.3 10.7-10.9 9.9-13.1-4.9-14.8-4.6-.5-10.2-1.6-12.4-2.3-4.2-1.4-5.1-2.8-14.2-22.5-2.8-6.3-5.5-8.1-6.7-4.6z"/></g>
</symbol>
</svg>