<svg xmlns="http://www.w3.org/2000/svg" viewBox="0 0 317.825 317.825"><g fill="#010002"><path d="M301.934 143.02H15.89C7.12 143.02 0 150.14 0 158.913c0 8.772 7.12 15.89 15.89 15.89h286.043c8.74 0 15.89-7.118 15.89-15.89.002-8.772-7.15-15.89-15.89-15.89zM15.89 79.456h286.043c8.74 0 15.89-7.12 15.89-15.89s-7.15-15.892-15.89-15.892H15.89C7.12 47.674 0 54.794 0 63.564s7.12 15.892 15.89 15.892zM301.934 238.37H15.89C7.12 238.37 0 245.52 0 254.26s7.12 15.89 15.89 15.89h286.043c8.74 0 15.89-7.15 15.89-15.89.002-8.74-7.15-15.89-15.89-15.89z"/></g></svg>